<svg width="24" height="14" fill="none" xmlns="http://www.w3.org/2000/svg"><path d="M14.223 1.484H8.168v10.925h6.055V1.484z" fill="#FF5F00"/><path fill-rule="evenodd" clip-rule="evenodd" d="M8.553 6.95a6.946 6.946 0 012.642-5.462 6.9 6.9 0 00-9.359.749 6.968 6.968 0 000 9.427 6.9 6.9 0 009.36.749 6.946 6.946 0 01-2.643-5.464z" fill="#EB001B"/><path fill-rule="evenodd" clip-rule="evenodd" d="M22.392 6.95a6.95 6.95 0 01-3.896 6.248 6.897 6.897 0 01-7.3-.787 6.957 6.957 0 002.643-5.463 6.958 6.958 0 00-2.643-5.462 6.897 6.897 0 017.301-.787 6.95 6.95 0 013.895 6.25z" fill="#F79E1B"/><path d="M21.982 12.643v-1.377h.261v-.273h-.65v.285h.26v1.377l.129-.012zm1.285 0v-1.662h-.173l-.233 1.187-.234-1.187h-.206v1.662h.117v-1.247l.217 1.08h.15l.217-1.08v1.259l.145-.012z" fill="#F79E1B"/></svg>