<svg width="27" height="9" fill="none" xmlns="http://www.w3.org/2000/svg"><path fill-rule="evenodd" clip-rule="evenodd" d="M13.369.16l-1.804 8.704H9.383L11.187.159h2.182zm9.179 5.62l1.148-3.269.661 3.269h-1.81zm2.434 3.084H27L25.239.159h-1.863a.993.993 0 00-.928.639l-3.274 8.066h2.29l.456-1.3h2.798l.264 1.3zM16.231 2.57c.007-.312.295-.644.925-.729.313-.042 1.175-.074 2.151.39l.384-1.846A5.703 5.703 0 0017.649 0c-2.156 0-3.674 1.183-3.686 2.877-.014 1.254 1.083 1.953 1.91 2.37.85.426 1.135.7 1.132 1.081-.007.584-.678.842-1.306.852-1.097.018-1.734-.306-2.24-.55l-.396 1.908c.51.241 1.45.452 2.426.462 2.292 0 3.791-1.168 3.799-2.978.01-2.298-3.078-2.424-3.057-3.45zM6.716 8.864H4.41L2.67 1.917c-.105-.428-.197-.585-.518-.765C1.628.858.762.582 0 .412L.051.159h3.713c.473 0 .899.325 1.006.888l.919 5.037L7.959.159h2.292L6.716 8.864z" fill="url(#paint0_linear)"/><defs><linearGradient id="paint0_linear" x1="0" y1="4.5" x2="27" y2="4.5" gradientUnits="userSpaceOnUse"><stop stop-color="#1D1C45"/><stop offset="1" stop-color="#174489"/></linearGradient></defs></svg>